<?xml version="1.0" encoding="UTF-8" standalone="no"?>
<!-- Created with Inkscape (http://www.inkscape.org/) -->

<svg
   xmlns:dc="http://purl.org/dc/elements/1.1/"
   xmlns:cc="http://creativecommons.org/ns#"
   xmlns:rdf="http://www.w3.org/1999/02/22-rdf-syntax-ns#"
   xmlns:svg="http://www.w3.org/2000/svg"
   xmlns="http://www.w3.org/2000/svg"
   xmlns:sodipodi="http://sodipodi.sourceforge.net/DTD/sodipodi-0.dtd"
   xmlns:inkscape="http://www.inkscape.org/namespaces/inkscape"
   width="1000"
   height="1000"
   viewBox="0 0 999.99999 1000"
   id="svg2"
   version="1.1"
   inkscape:version="0.91 r13725"
   sodipodi:docname="icons-set-ready.svg">
  <defs
     id="defs4">
    <clipPath
       clipPathUnits="userSpaceOnUse"
       id="clipPath4297">
      <rect
         style="opacity:0.98000004;fill:#000000"
         id="rect4299"
         width="224.8221"
         height="168.30244"
         x="-697.60437"
         y="-3170.7715" />
    </clipPath>
    <clipPath
       clipPathUnits="userSpaceOnUse"
       id="clipPath4303">
      <rect
         style="opacity:0.98000004;fill:#000000"
         id="rect4305"
         width="152.73506"
         height="121.62237"
         x="-646.69263"
         y="-3139.6587" />
    </clipPath>
  </defs>
  <sodipodi:namedview
     id="base"
     pagecolor="#ffffff"
     bordercolor="#666666"
     borderopacity="1.0"
     inkscape:pageopacity="0.0"
     inkscape:pageshadow="2"
     inkscape:zoom="0.35355339"
     inkscape:cx="387.12133"
     inkscape:cy="714.57873"
     inkscape:document-units="px"
     inkscape:current-layer="layer1"
     showgrid="false"
     fit-margin-top="0"
     fit-margin-left="0"
     fit-margin-right="0"
     fit-margin-bottom="0"
     inkscape:window-width="1858"
     inkscape:window-height="1058"
     inkscape:window-x="54"
     inkscape:window-y="-8"
     inkscape:window-maximized="1"
     units="px" />
  <metadata
     id="metadata7">
    <rdf:RDF>
      <cc:Work
         rdf:about="">
        <dc:format>image/svg+xml</dc:format>
        <dc:type
           rdf:resource="http://purl.org/dc/dcmitype/StillImage" />
        <dc:title></dc:title>
      </cc:Work>
    </rdf:RDF>
  </metadata>
  <g
     inkscape:label="Layer 1"
     inkscape:groupmode="layer"
     id="layer1"
     transform="translate(-51.928817,3497.6057)">
    <path
       style="fill:#020202"
       d="m -23.937569,-3592.7175 c -2.977296,-0.7826 -19.523648,-9.6099 -36.769844,-19.6164 -42.386187,-24.5933 -42.837047,-25.2362 -43.672597,-62.2623 l -0.52715,-23.3605 11.945778,0 c 11.756001,0 12.320005,0.1922 35.538521,12.1199 43.111025,22.1467 43.632431,22.1458 83.195267,-0.1143 l 21.338622,-12.0061 12.779805,0 12.779807,0 0,22.5759 c 0,20.0624 -0.319503,23.4089 -2.869781,30.0578 -1.578368,4.1152 -4.878608,9.559 -7.333859,12.0972 -5.79095,5.9868 -63.01450456,38.4794 -71.5759976,40.6422 -7.3274914,1.8511 -7.2734114,1.8515 -14.8285714,-0.1342 z m 129.770049,-36.9819 c 0,-0.7697 1.43488,-7.7852 3.18863,-15.5899 3.05715,-13.6054 3.18864,-16.0691 3.18864,-59.7627 0,-25.0647 -0.34565,-45.5723 -0.76807,-45.5723 -0.42256,0 -26.107044,14.3143 -57.076627,31.8098 l -56.3085426,31.8098 -12.7545534,0.046 -12.754553,0.045 -58.670946,-30.3441 c -32.269008,-16.6896 -60.249318,-31.4264 -62.178438,-32.7487 -4.72364,-3.2377 -4.52647,-8.3235 0.4556,-11.7554 2.17975,-1.5014 30.46641,-15.9904 62.859144,-32.1977 63.83845,-31.9408 68.354583,-33.5581 81.7682904,-29.2852 11.5872557,3.6913 119.4803156,55.3756 122.0398956,58.4614 1.65619,1.9963 1.91523,3.4895 1.00047,5.7664 -0.71527,1.7802 -1.23437,24.0837 -1.23437,53.0371 0,44.1034 0.27587,51.0423 2.35205,59.1504 1.29357,5.0519 2.73942,11.2878 3.21288,13.8574 l 0.86093,4.6723 -9.59015,0 c -5.27465,0 -9.59028,-0.6299 -9.59028,-1.3997 z"
       id="path3413"
       inkscape:connector-curvature="0" />
    <path
       style="fill:#020202"
       d="m -342.55642,-3586.4089 c -47.67476,-6.6041 -88.12801,-39.7377 -103.00512,-84.3676 -4.98871,-14.9658 -6.37936,-23.8073 -6.37936,-40.5595 0,-16.7522 1.39065,-25.5936 6.37936,-40.5594 12.01092,-36.0316 42.48133,-66.4873 78.52707,-78.4893 14.98552,-4.9897 23.82871,-6.3793 40.59357,-6.3793 16.76486,0 25.60805,1.3896 40.59357,6.3793 36.04574,12.002 66.51615,42.4577 78.52707,78.4893 4.98871,14.9658 6.37936,23.8072 6.37936,40.5594 0,16.7553 -1.39056,25.5934 -6.38301,40.5703 -10.07845,30.2341 -33.89564,57.4766 -63.10086,72.1757 -8.38725,4.2213 -21.36617,8.6065 -31.88992,10.7746 -9.47737,1.9525 -30.89583,2.7011 -40.24173,1.4065 z m 35.81038,-16.464 3.4466,-0.8028 -4.43134,-1.1344 c -5.28167,-1.3522 -13.78611,-6.3309 -20.54795,-12.0292 -5.65282,-4.7639 -5.9252,-5.582 -9.01473,-27.0804 -2.50558,-17.4353 -5.02918,-25.1934 -9.91971,-30.4961 l -3.75739,-4.074 -10.32818,-1.0705 c -16.06234,-1.6648 -24.12,-6.3592 -29.96672,-17.4583 -2.24157,-4.2552 -2.61518,-6.1674 -2.60563,-13.3332 0.01,-7.3305 0.39124,-9.157 3.08363,-14.7627 1.68982,-3.5184 4.42602,-7.8362 6.08049,-9.5949 2.98643,-3.1749 14.98395,-9.294 20.66936,-10.542 4.60673,-1.0112 10.26832,1.0368 16.93581,6.1263 17.70598,13.5153 23.8882,16.581 28.02284,13.8963 1.09622,-0.7118 6.85017,-3.7452 12.7865,-6.7411 11.82991,-5.9699 13.96661,-7.9837 10.87126,-10.2458 -1.85358,-1.3546 -1.75195,-1.5927 2.71937,-6.3702 5.07931,-5.4271 5.20831,-7.1513 0.67534,-9.0278 -5.03243,-2.0833 -12.62923,1.5742 -15.42049,7.4242 -1.35175,2.833 -1.46628,4.206 -0.61654,7.3881 l 1.04382,3.9084 -3.35866,0 c -5.11033,0 -8.22005,-2.1113 -16.44383,-11.1644 -8.76313,-9.6469 -11.73558,-11.299 -17.32065,-9.6266 -3.05507,0.9148 -3.94321,1.7323 -4.46591,4.1106 -0.35884,1.6327 -1.75668,3.6917 -3.10627,4.5756 -4.74331,3.1061 -16.88746,1.1722 -14.05534,-2.2383 0.64471,-0.7764 2.55659,-1.7682 4.24877,-2.204 4.18122,-1.0768 4.4278,-3.9141 0.65407,-7.5276 -1.64649,-1.5765 -2.99362,-3.17 -2.99362,-3.5412 0,-0.3712 2.19056,-0.8852 4.86798,-1.1423 6.62102,-0.6358 16.20405,-5.4764 16.61862,-8.3945 0.45239,-3.1831 4.82623,-2.9062 11.65956,0.7381 6.84721,3.6518 9.11921,3.6971 12.33982,0.2461 9.0427,-9.6897 4.7566,-16.5749 -7.22763,-11.6105 -2.4198,1.0025 -3.04453,-0.9265 -1.49799,-4.6256 2.57205,-6.1522 18.03636,-16.7407 26.44026,-18.1037 2.80041,-0.4541 4.31632,-0.091 6.69162,1.5983 4.28738,3.0513 10.33705,3.7451 12.84824,1.4738 3.01282,-2.725 2.35226,-4.3022 -2.7301,-6.5189 -11.32189,-4.938 -30.05308,-8.7165 -43.08251,-8.6906 -18.57797,0.036 -39.79859,5.9105 -55.63799,15.3999 -9.54226,5.7167 -9.54945,5.7266 -6.27084,8.5749 2.39519,2.0808 2.64393,2.7242 1.63762,4.2354 -0.65268,0.9801 -2.4912,3.9964 -4.0856,6.7029 -6.70994,11.3902 -16.23073,18.7406 -25.73084,19.865 l -5.21008,0.6168 -4.23351,8.9505 c -2.32843,4.9229 -5.11052,12.4937 -6.18232,16.8241 -3.44089,13.9007 -3.40002,13.2213 -0.8521,14.1895 3.42711,1.3022 8.63088,5.9819 9.65994,8.6871 0.75904,1.9951 0.35323,3.0297 -2.49091,6.3504 -4.04749,4.726 -7.51684,11.765 -8.1649,16.566 -0.61891,4.585 2.04295,15.2052 6.40635,25.5599 15.19508,36.0592 46.99982,60.6084 86.69324,66.9163 6.22998,0.9901 29.28872,0.4757 34.64917,-0.7729 z m 17.09948,-4.7367 c 31.21114,-10.6874 57.58984,-37.7016 68.01335,-69.6517 3.14675,-9.6456 3.22631,-10.9061 0.58445,-9.2571 -2.67161,1.6674 -3.67841,0.4206 -5.71969,-7.0831 -2.39223,-8.7932 -4.51308,-10.1636 -16.74969,-10.8226 -5.25764,-0.283 -10.0624,-0.8415 -10.67718,-1.241 -0.61477,-0.3995 -2.46816,-0.2559 -4.11859,0.319 -2.34093,0.8156 -5.16832,0.5967 -12.85799,-0.9958 -12.0113,-2.4877 -11.49658,-2.4849 -13.90979,-0.073 -2.44049,2.4391 -2.6268,8.4688 -0.33973,10.9946 2.10026,2.3194 6.15366,2.2667 13.96769,-0.1813 7.62566,-2.389 9.02113,-2.4325 9.02113,-0.2812 0,0.9209 -4.18003,9.0035 -9.28888,17.9613 -19.72638,34.5876 -22.68888,41.9078 -24.08012,59.5014 -0.7102,8.9818 -0.98711,9.9382 -3.50431,12.1021 l -2.73305,2.3495 2.81636,-0.6631 c 1.549,-0.3647 5.85824,-1.7048 9.57604,-2.9778 z"
       id="path4219"
       inkscape:connector-curvature="0" />
    <path
       style="fill:#010101"
       d="m -1094.3268,-3605.5663 c -31.4733,-8.4251 -57.611,-15.4702 -58.0837,-15.6557 -0.8145,-0.3195 -0.8596,-5.273 -0.8596,-94.4162 0,-83.6418 0.082,-94.079 0.7429,-94.079 0.875,0 116.5208,30.8059 117.1835,31.2155 0.2717,0.1679 0.4513,37.6993 0.4513,94.3135 l 0,94.0346 -1.1052,-0.047 c -0.6078,-0.025 -26.856,-6.9403 -58.3292,-15.3656 z m 74.6614,-78.6219 c 0,-56.6142 0.1796,-94.1456 0.4513,-94.3135 0.5422,-0.335 116.22481,-31.2155 116.93792,-31.2155 0.33392,0 0.49729,30.9711 0.49729,94.2445 l 0,94.2444 -2.82437,0.7796 c -13.75195,3.7961 -113.74604,30.2951 -114.31804,30.2951 -0.662,0 -0.7441,-10.3712 -0.7441,-94.0346 z m -54.3498,-120.8384 c -25.4349,-6.8235 -46.5993,-12.5421 -47.0318,-12.7082 -0.6906,-0.265 -0.7867,-1.7138 -0.7867,-11.8603 0,-7.3675 0.1779,-11.5585 0.4905,-11.5585 0.2698,0 21.5453,10.5268 47.2791,23.3928 l 46.7886,23.3927 46.7835,-23.3927 c 25.73089,-12.866 47.00498,-23.3928 47.27563,-23.3928 0.59071,0 0.69454,22.9032 0.1056,23.2672 -0.40504,0.2503 -94.31003,25.3961 -94.53183,25.3136 -0.07,-0.026 -20.9378,-5.6302 -46.3727,-12.4538 z"
       id="path4221"
       inkscape:connector-curvature="0" />
    <path
       style="fill:#030303"
       d="m 757.5809,-3574.9753 c -1.52133,-2.8422 -2.76585,-19.6326 -2.76585,-37.3122 0,-31.7381 0.0988,-32.2569 7.83131,-41.0637 10.62416,-12.1001 32.41777,-23.5373 46.03114,-24.1571 l 11.13446,-0.5069 16.1596,39.4091 c 8.88774,21.675 16.8067,39.3965 17.59782,39.381 0.79112,-0.027 9.27329,-17.7496 18.84982,-39.409 l 17.41133,-39.3811 11.69875,0.5445 c 14.13971,0.6578 38.16188,11.9101 45.59165,21.3555 4.82955,6.1401 5.40746,10.7762 5.40746,43.3852 0,24.8347 -1.02543,37.5359 -3.20616,39.7166 -2.37069,2.3707 -27.4095,3.2062 -96.09084,3.2062 -89.0979,0 -92.9974,-0.2111 -95.65049,-5.1681 z m 82.06224,-97.4694 c -25.4099,-6.8254 -42.07927,-28.584 -42.07927,-54.9264 0,-11.15 4.23107,-29.4622 6.80722,-29.4622 0.51753,0 11.81925,4.7181 25.11493,10.4849 l 24.17393,10.4847 24.70241,-10.5579 c 28.17121,-12.0404 29.71444,-11.5681 32.96202,10.0896 6.04174,40.2886 -32.30369,74.4647 -71.68124,63.8873 z m -77.48064,-33.8384 c -5.6896,-3.3138 -6.12644,-13.9586 -0.75585,-18.4157 2.88688,-2.3958 4.11911,-10.6094 4.67565,-31.163 l 0.75585,-27.91 43.58323,-18.5177 43.58323,-18.5177 43.25033,18.4314 c 40.64611,17.3216 42.80466,18.6014 35.85023,21.2537 -4.06995,1.552 -22.93394,9.4555 -41.9203,17.5631 -18.98609,8.1075 -36.09524,14.6631 -38.02054,14.5674 -1.92503,-0.096 -20.93383,-7.702 -42.24145,-16.9031 l -38.74112,-16.7298 -0.76521,26.6047 c -0.60329,20.9724 0.1042,27.5648 3.33975,31.1404 5.66129,6.2558 5.14215,15.3955 -1.06311,18.7163 -6.15048,3.2916 -5.66448,3.2967 -11.53069,-0.1203 z"
       id="path4223"
       inkscape:connector-curvature="0" />
    <path
       style="opacity:0.98000004;fill:#000000"
       d="m 275.21329,-3826.2364 a 125.49994,125.49998 0 0 0 -125.49998,125.5006 125.49994,125.49998 0 0 0 125.49998,125.4994 125.49994,125.49998 0 0 0 125.50002,-125.4994 125.49994,125.49998 0 0 0 -125.50002,-125.5006 z m -101.81512,86.923 33.84778,0 0,13.6791 -9.47144,0 0,49.7958 9.47144,0 0,13.6803 -33.84778,0 0,-13.6803 9.47143,0 0,-49.7958 -9.47143,0 0,-13.6791 z m 46.07495,0 41.8043,0 0,14.9228 -26.97619,0 0,13.317 25.03579,0 0,14.9228 -25.03579,0 0,19.0687 26.97619,0 0,14.9239 -41.8043,0 0,-77.1552 z m 69.24834,0 17.15614,0 21.34878,77.1552 -15.40952,0 -3.99892,-15.5974 -21.42563,0 -3.99887,15.5974 -15.02194,0 21.34996,-77.1552 z m 46.88916,0 41.41667,0 0,14.9228 -26.58855,0 0,14.3538 24.64822,0 0,14.9228 -24.64822,0 0,32.9558 -14.82812,0 0,-77.1552 z m -38.50491,19.7422 -7.10442,27.6698 14.20772,0 -7.1033,-27.6698 z"
       id="path4227"
       inkscape:connector-curvature="0" />
    <flowRoot
       xml:space="preserve"
       id="flowRoot4229"
       style="font-style:normal;font-weight:normal;font-size:180px;line-height:125%;font-family:sans-serif;letter-spacing:0px;word-spacing:0px;fill:#000000;fill-opacity:1;stroke:none;stroke-width:1px;stroke-linecap:butt;stroke-linejoin:miter;stroke-opacity:1"
       transform="translate(0,-2490.9449)"><flowRegion
         id="flowRegion4231"><rect
           id="rect4233"
           width="543.05798"
           height="265.87216"
           x="3156.5247"
           y="-772.87262"
           style="font-size:180px" /></flowRegion><flowPara
         id="flowPara4235" /></flowRoot>    <path
       style="opacity:0.98000004;fill:#000000"
       d="m 562.45961,-3817.7479 a 125.86501,125.86501 0 0 0 -125.86523,125.8652 125.86501,125.86501 0 0 0 76.43554,115.7266 c 2.37237,-2.2658 6.35956,-5.8105 13.49024,-12.0528 l 15.64258,-13.6953 9.33789,8.1778 9.33789,8.1777 -15.9336,13.9785 c -1.53377,1.3457 -2.76722,2.4232 -4.06054,3.5547 a 125.86501,125.86501 0 0 0 3.60351,0.5449 c 2.70326,-2.5475 7.03207,-6.2967 13.99219,-12.2969 9.13218,-7.8725 17.1074,-14.5064 17.7207,-14.7421 5.37914,-2.0678 10.96154,3.4688 7.86914,7.8046 -0.4556,0.6388 -8.18866,7.5964 -17.18554,15.4629 -2.24396,1.9621 -4.11962,3.5826 -5.93164,5.1465 a 125.86501,125.86501 0 0 0 1.54687,0.078 125.86501,125.86501 0 0 0 125.86524,-125.8652 125.86501,125.86501 0 0 0 -125.86524,-125.8652 z m -97.69531,81.1914 97.69531,0 97.69531,0 1.78907,0.8281 c 0.984,0.4552 2.33614,1.5105 3.00586,2.3438 l 1.21875,1.5156 0,51.8183 0,51.8184 -1.28516,2.375 c -2.41386,4.4655 -6.57282,7.2996 -11.9082,8.1133 -1.73776,0.265 -7.75675,0.365 -17.65625,0.2929 -13.08146,-0.096 -15.17559,-0.1864 -16.23633,-0.7011 -2.67568,-1.2982 -4.67639,-4.0577 -4.65821,-6.4239 0.023,-2.9578 3.02176,-5.9959 6.57618,-6.664 1.15768,-0.2175 7.70202,-0.3731 15.76172,-0.3731 l 13.7832,0 -0.10352,-34.9511 -0.10351,-34.9512 -87.87891,0 -87.8789,0 -0.10352,34.9434 -0.10352,34.9433 39.07032,0.096 c 37.27356,0.093 39.13491,0.1288 40.49023,0.7637 3.09432,1.4493 4.46947,3.4055 4.45899,6.3457 -0.0128,2.4169 -1.22941,4.3514 -3.65235,5.7851 l -1.82031,1.0782 -39.7793,0.062 c -29.9308,0.049 -40.33009,-0.042 -42.00976,-0.3672 l 0,0 c -4.92276,-0.9524 -8.79951,-3.7464 -11.09571,-7.9941 l -1.28515,-2.375 0,-51.8184 0,-51.8183 1.21875,-1.5156 c 0.66972,-0.8333 2.02198,-1.8886 3.00586,-2.3438 l 1.78906,-0.8281 z m 95.05664,49.0664 1.91797,0.7812 c 3.4049,1.3868 5.33247,4.9622 4.34375,8.0567 -0.61702,1.9318 -3.0826,4.186 -5.11914,4.6816 -1.03246,0.2513 -12.63029,0.3749 -34.83203,0.3711 -31.49434,-0.012 -33.37193,-0.04 -34.90821,-0.6621 -5.58546,-2.2592 -6.15622,-8.7924 -1.04492,-11.957 l 1.72461,-1.0664 33.95898,-0.1016 33.95899,-0.1035 z m 61.6875,0.072 c 6.87357,0.01 10.4975,0.1069 11.28125,0.3085 6.20248,1.5967 7.36663,8.9255 1.95117,12.2793 l -1.72265,1.0664 -18.12891,0.088 c -16.97072,0.084 -18.23411,0.046 -19.75391,-0.5742 -5.58762,-2.2857 -6.15805,-8.7995 -1.04687,-11.9648 l 1.72461,-1.0664 17.72265,-0.1114 c 3.02868,-0.019 5.68147,-0.027 7.97266,-0.025 z m -77.68359,20.9843 c 13.8966,0 16.15602,0.1268 17.33789,0.5196 6.49384,2.1609 6.94598,9.9468 0.73047,12.5839 -1.69185,0.7178 -2.25524,0.729 -35.58594,0.7149 -30.04898,-0.013 -34.00357,-0.078 -35.08399,-0.5762 -5.62792,-2.5957 -6.17196,-8.8648 -1.04492,-12.039 l 1.72461,-1.0665 33.75586,-0.1 c 7.60942,-0.023 13.53382,-0.037 18.16602,-0.037 z m 82.52929,3.5157 c 1.93522,0 3.89258,1.6418 3.89258,3.2656 0,1.3873 -0.60351,2.2714 -3.23047,4.7383 -1.56764,1.4719 -2.04989,2.27 -2.79687,4.625 -1.16498,3.6733 -5.3021,11.0361 -8.99414,16.0078 -2.69014,3.6228 -4.52277,5.3329 -24.68555,23.0351 -11.97812,10.5166 -21.87397,19.1211 -21.99024,19.1211 -0.11639,0 -4.36611,-3.6447 -9.44531,-8.0996 l -9.23633,-8.0996 22.43164,-19.582 c 20.22008,-17.6515 22.84695,-19.82 26.66407,-22.0098 5.71656,-3.279 11.89965,-6.009 16.59179,-7.3262 3.53178,-0.9917 4.13547,-1.2988 6.65625,-3.3828 2.28188,-1.8864 3.01482,-2.2929 4.14258,-2.2929 z"
       id="path4260"
       inkscape:connector-curvature="0" />
    <path
       style="opacity:0.98000004;fill:#000000"
       d="M 1089.9941 -314.48828 A 125.5 125.5 0 0 0 964.49414 -188.98828 A 125.5 125.5 0 0 0 1014.8691 -88.648438 C 1018.3175 -95.867347 1021.9855 -103.54502 1024.3496 -108.49805 L 1031.3242 -123.10547 L 1052.4434 -123.10547 C 1072.4874 -123.10547 1073.5595 -123.11979 1073.4844 -123.37109 C 1073.4414 -123.51639 1067.9922 -134.81176 1061.375 -148.47266 C 1054.7578 -162.13356 1048.9124 -174.22841 1048.3867 -175.34961 C 1045.8738 -180.70761 1044.5541 -188.24985 1044.9785 -194.81445 C 1045.3973 -201.29075 1046.7602 -206.54405 1049.4395 -212.00195 C 1051.8871 -216.98795 1054.6321 -220.78833 1058.5254 -224.58203 C 1066.6786 -232.52653 1077.1728 -236.99007 1088.5527 -237.35547 C 1100.7599 -237.74747 1112.3888 -233.28814 1121.1855 -224.83984 C 1128.9124 -217.41904 1133.6764 -207.68585 1134.8438 -196.93945 C 1135.0813 -194.75135 1135.0826 -189.78769 1134.8535 -187.80469 C 1134.4427 -184.35949 1133.7761 -181.26088 1132.8164 -178.33398 C 1132.4683 -177.27248 1128.251 -168.40538 1119.4395 -150.20898 C 1112.3619 -135.59308 1106.5365 -123.51639 1106.4941 -123.37109 C 1106.4211 -123.12029 1107.4949 -123.10547 1127.541 -123.10547 L 1148.6641 -123.10547 L 1150.1113 -120.04883 C 1150.8965 -118.39165 1157.6713 -104.20181 1165.1172 -88.617188 A 125.5 125.5 0 0 0 1215.4941 -188.98828 A 125.5 125.5 0 0 0 1089.9941 -314.48828 z M 1090.666 -208.36914 C 1086.2046 -208.55344 1082.2988 -207.1381 1079.043 -204.1582 C 1077.0147 -202.3017 1075.1733 -199.29087 1074.4434 -196.63867 C 1071.9543 -187.59457 1077.6918 -178.32193 1086.9102 -176.49023 C 1088.3396 -176.20623 1091.4876 -176.20122 1092.9688 -176.47852 L 1092.9688 -176.48242 C 1102.229 -178.23902 1108.0326 -187.55027 1105.5312 -196.63867 C 1104.8113 -199.25457 1102.9468 -202.313 1100.9668 -204.125 C 1098.0555 -206.7894 1094.6169 -208.20584 1090.666 -208.36914 z M 1064.4688 -116.76758 L 1064.4688 -113.29492 L 1064.4688 -109.82422 L 1064.8086 -109.75195 C 1064.9955 -109.71195 1065.5564 -109.60257 1066.0547 -109.50977 C 1069.154 -108.93237 1072.4067 -107.41585 1075.1895 -105.24805 C 1077.8961 -103.13955 1079.9289 -101.02778 1084.4355 -95.642578 C 1087.4549 -92.034578 1089.7303 -89.443431 1089.8145 -89.519531 C 1089.8445 -89.546531 1086.9179 -95.671106 1083.3105 -103.12891 L 1076.752 -116.68945 L 1070.6113 -116.72852 L 1064.4688 -116.76758 z M 1035.3828 -116.76367 L 1030.6074 -106.76172 C 1027.9815 -101.25992 1025.7878 -96.639441 1025.7324 -96.494141 C 1025.6014 -96.150741 1025.7626 -96.155775 1027.334 -96.546875 C 1028.7998 -96.911075 1030.9149 -97.862578 1032.4082 -98.830078 C 1032.9759 -99.197878 1034.6572 -100.40452 1036.1445 -101.51172 C 1040.702 -104.90432 1043.6212 -106.57398 1047.0879 -107.77148 C 1050.976 -109.11458 1055.9518 -109.96715 1059.9023 -109.96875 L 1061.1484 -109.96875 L 1061.1484 -113.36719 L 1061.1484 -116.76367 L 1048.2656 -116.76367 L 1035.3828 -116.76367 z M 1118.0703 -116.76367 L 1118.0703 -116.27344 C 1118.0703 -115.38924 1118.6684 -113.27313 1119.2852 -111.95703 C 1121.041 -108.21023 1124.3287 -105.75148 1129.6953 -104.17188 C 1133.9647 -102.91518 1139.0832 -102.40818 1148.623 -102.30078 C 1150.8498 -102.27578 1151.4544 -102.31228 1151.3965 -102.45898 L 1151.3984 -102.45898 C 1151.3574 -102.56268 1149.8097 -105.82268 1147.959 -109.70508 L 1144.5938 -116.76367 L 1131.332 -116.76367 L 1118.0703 -116.76367 z M 1112.625 -116.75391 C 1111.7729 -116.75676 1110.5996 -116.73967 1108.9766 -116.72852 L 1103.2246 -116.68945 L 1096.5801 -102.95703 L 1089.9375 -89.226562 L 1091.8887 -87.330078 C 1101.1414 -78.338178 1111.3687 -74.286531 1126.752 -73.519531 C 1128.7927 -73.417731 1136.5444 -73.600747 1139.1094 -73.810547 L 1139.1094 -73.808594 C 1139.2666 -73.821451 1139.4129 -73.838045 1139.5684 -73.851562 A 125.5 125.5 0 0 0 1159.834 -84.837891 L 1156.709 -91.386719 L 1153.0273 -99.097656 L 1149.5547 -99.097656 C 1143.201 -99.097656 1137.0026 -99.477144 1133.3223 -100.08984 C 1126.0574 -101.29924 1120.7295 -104.05617 1117.8262 -108.10547 C 1116.5039 -109.94997 1115.2726 -113.12737 1114.9707 -115.48047 C 1114.8328 -116.55574 1115.1812 -116.74534 1112.625 -116.75391 z M 1061.1484 -106.84375 L 1059.0703 -106.73828 C 1051.9296 -106.37518 1046.6565 -104.77573 1041.5488 -101.42383 C 1040.6106 -100.80823 1038.9133 -99.602194 1037.7754 -98.746094 C 1034.7876 -96.498094 1033.5334 -95.689103 1031.6445 -94.783203 C 1029.6002 -93.803003 1027.7801 -93.271731 1025.6016 -93.019531 L 1023.9531 -92.828125 L 1020.1172 -84.802734 A 125.5 125.5 0 0 0 1061.1484 -66.988281 L 1061.1484 -84.701172 L 1061.1484 -106.84375 z M 1064.4316 -106.54297 C 1064.3148 -106.47699 1064.2881 -76.290015 1064.3633 -66.167969 A 125.5 125.5 0 0 0 1089.9941 -63.488281 A 125.5 125.5 0 0 0 1130.2871 -70.296875 C 1114.7639 -70.305903 1102.9449 -73.944094 1093.5039 -81.611328 C 1090.2145 -84.282728 1087.4138 -87.146434 1083.291 -92.052734 C 1077.4349 -99.021834 1075.3559 -101.21134 1072.7891 -103.11914 C 1071.4095 -104.14454 1069.0607 -105.384 1067.5645 -105.875 C 1066.4841 -106.2295 1064.591 -106.63287 1064.4316 -106.54297 z "
       transform="translate(51.928817,-3497.6057)"
       id="path4265" />
    <path
       style="fill:#030303"
       d="m -790.36388,-3591.8951 c -5.90025,-1.0985 -11.3036,-6.1317 -14.45306,-13.463 -0.87201,-2.0298 -1.12302,-4.2 -1.12302,-9.7095 0,-6.6971 0.11336,-7.3399 2.01846,-11.4499 2.1094,-4.5508 5.11363,-7.8118 9.66363,-10.4902 l 2.69583,-1.5869 118.91741,0 118.91736,0 3.32232,1.9427 c 7.30577,4.2721 10.82683,10.6945 11.2397,20.5006 0.22225,5.2793 0.0633,6.5498 -1.27619,10.2007 -2.16129,5.8908 -4.66962,9.1205 -9.28302,11.9527 l -4.00281,2.4572 -116.82061,0.1015 c -64.25128,0.056 -118.16848,-0.1493 -119.816,-0.4559 z m 0,-95.6016 c -5.90025,-1.0985 -11.3036,-6.1317 -14.45306,-13.463 -0.87201,-2.0297 -1.12302,-4.2 -1.12302,-9.7095 0,-6.697 0.11336,-7.3398 2.01846,-11.4498 2.1094,-4.5508 5.11363,-7.8119 9.66363,-10.4903 l 2.69583,-1.5869 118.91741,0 118.91736,0 3.32232,1.9428 c 7.30577,4.2721 10.82683,10.6944 11.2397,20.5006 0.22225,5.2792 0.0633,6.5497 -1.27619,10.2006 -2.16129,5.8908 -4.66962,9.1205 -9.28302,11.9527 l -4.00281,2.4572 -116.82061,0.1016 c -64.25128,0.056 -118.16848,-0.1493 -119.816,-0.456 z m 0,-95.6015 c -5.90025,-1.0985 -11.3036,-6.1317 -14.45306,-13.463 -0.87201,-2.0298 -1.12302,-4.2 -1.12302,-9.7095 0,-6.6971 0.11336,-7.3399 2.01846,-11.4499 2.1094,-4.5508 5.11363,-7.8118 9.66363,-10.4902 l 2.69583,-1.5869 118.91741,0 118.91736,0 3.32232,1.9427 c 7.30577,4.2721 10.82683,10.6945 11.2397,20.5006 0.22225,5.2793 0.0633,6.5498 -1.27619,10.2007 -2.16129,5.8908 -4.66962,9.1205 -9.28302,11.9527 l -4.00281,2.4572 -116.82061,0.1015 c -64.25128,0.056 -118.16848,-0.1493 -119.816,-0.4559 z"
       id="path4282"
       inkscape:connector-curvature="0" />
    <path
       style="fill:#000000"
       d="m -1039.2909,-3284.5582 c -49.2313,-4.1081 -92.2342,-37.7485 -108.0765,-84.5463 -17.4985,-51.6899 0,-108.2701 43.6195,-141.0318 33.0068,-24.7913 76.3102,-31.6401 115.71331,-18.301 36.48158,12.35 65.90177,41.7702 78.25181,78.2518 17.49851,51.6899 0,108.2701 -43.61951,141.0318 -24.42569,18.3461 -55.19351,27.1569 -85.88861,24.5955 z m 46.69316,-45.9572 c 0.95532,-1.0254 0.91299,-3.2532 -0.0735,-3.8709 -0.80897,-0.5066 -2.48952,0.3062 -2.82615,1.3668 -0.29189,0.9197 0.84154,3.3606 1.5605,3.3606 0.29763,0 0.90028,-0.3854 1.33917,-0.8565 z m -21.63806,-0.589 c 0.131,-0.3414 0.8267,-3.8313 1.546,-7.7553 1.5401,-8.402 3.8291,-19.7464 5.5682,-27.5967 l 1.2421,-5.6068 6.35248,-0.2451 c 3.49386,-0.1348 6.61079,-0.3861 6.92653,-0.5583 0.31573,-0.1722 0.57406,-0.6388 0.57406,-1.0368 0,-0.6862 -0.33445,-0.7172 -6.43831,-0.5979 -6.25016,0.1222 -6.44436,0.1026 -6.64636,-0.6698 -0.2707,-1.035 -1.449,-1.0199 -2.183,0.028 -0.5486,0.7834 -0.8368,0.8194 -5.9315,0.7401 -5.6497,-0.088 -6.9299,0.1914 -6.9299,1.5116 0,0.7153 0.2907,0.752 5.9554,0.752 l 5.9555,0 -0.2512,1.8178 c -0.1382,0.9999 -1.0906,5.4345 -2.1165,9.8548 -3.695,15.92 -6.0158,29.029 -5.2934,29.8994 0.4852,0.5847 1.3457,0.3081 1.6699,-0.5369 z m -55.3811,-0.6763 c 2.3914,-1.675 10.6204,-15.9266 15.2454,-26.403 1.4314,-3.2424 2.6219,-5.8575 2.6457,-5.8114 0.024,0.046 -0.1086,2.9254 -0.2941,6.3985 -0.3133,5.863 0.08,17.2994 0.8155,23.7279 0.2204,1.9259 0.3222,2.1049 1.1976,2.1049 0.9166,0 0.9559,-0.097 0.9359,-2.2962 -0.012,-1.263 -0.2466,-6.0895 -0.5224,-10.7258 -0.5162,-8.6776 -0.2355,-17.9377 0.785,-25.8951 0.2354,-1.8351 0.3229,-3.6103 0.1945,-3.9449 -0.402,-1.0476 -1.6453,0 -2.3671,2.0035 -3.2765,9.0739 -9.1467,21.9408 -12.704,27.8464 -5.6851,9.438 -6.6106,10.7787 -7.5662,10.9611 -0.9013,0.172 -1.2646,1.8093 -0.5079,2.2889 0.7366,0.4669 1.1884,0.4131 2.1421,-0.2548 z m 38.2174,-0.7465 c 1.0777,-0.479 2.6673,-1.5103 3.5324,-2.2919 2.6029,-2.3516 5.1831,-8.3888 3.919,-9.17 -0.7947,-0.4912 -1.4873,0.3405 -2.0907,2.5109 -2.2934,8.2489 -15.1086,10.9871 -17.9686,3.8393 -1.4287,-3.5707 -1.0942,-8.4212 0.842,-12.2073 0.9889,-1.9336 3.7028,-4.963 5.0878,-5.6793 1.0513,-0.5436 1.3238,-0.512 4.1194,0.4783 2.5471,0.9022 3.1433,0.9921 3.997,0.6031 0.6836,-0.3114 1.0034,-0.7547 1.0034,-1.3909 0,-1.3474 -2.1423,-2.551 -5.0021,-2.8103 -2.0652,-0.1872 -2.4224,-0.3519 -3.4479,-1.5893 -1.4724,-1.7767 -2.4287,-4.992 -2.0987,-7.056 0.5485,-3.4304 2.7223,-5.2317 6.3134,-5.2317 3.4191,0 5.4807,1.4151 7.323,5.0264 0.4152,0.8138 0.9114,1.4797 1.1025,1.4797 0.4172,0 1.5504,-1.0862 1.5504,-1.4861 0,-0.1558 -0.7395,-1.387 -1.6433,-2.736 -2.1641,-3.2302 -4.5736,-4.5802 -8.1747,-4.5802 -3.003,0 -4.8454,0.8471 -6.7942,3.1238 -1.7018,1.9882 -2.3006,4.0559 -1.9759,6.8232 0.2266,1.9316 1.4063,4.9376 2.6002,6.6256 0.4153,0.5871 0.374,0.7522 -0.2772,1.1055 -1.3915,0.755 -4.5754,4.3007 -5.6324,6.2723 -4.5825,8.548 -1.6174,18.0924 6.0034,19.3246 2.3713,0.3834 5.5474,-0.022 7.7118,-0.9837 z m 39.10223,-6.7951 c 0.44237,-0.5331 2.58982,-10.2485 4.08162,-18.4657 1.20167,-6.6189 3.28249,-22.0575 3.02834,-22.4687 -0.32267,-0.5221 -1.58044,-0.3291 -1.81351,0.2783 -0.12258,0.3194 -0.74727,4.2374 -1.38827,8.7066 -1.49448,10.4206 -2.75325,17.6514 -4.43043,25.4501 -0.73778,3.4307 -1.23848,6.4041 -1.11269,6.6077 0.31964,0.5172 1.16225,0.4614 1.63494,-0.1083 z m 0.74635,-56.3549 c 17.31864,-4.0796 33.07747,-27.9928 36.0647,-54.7262 1.05647,-9.4544 -0.3098,-18.8707 -3.41196,-23.5155 l -1.13607,-1.701 1.32149,-1.2834 c 1.35104,-1.3121 1.65078,-2.7948 0.99627,-4.9281 -0.46067,-1.5015 -12.32506,-10.7876 -15.87116,-12.4221 -2.3987,-1.1056 -3.1322,-1.2514 -7.12174,-1.4157 -3.69961,-0.1524 -4.99309,-0.046 -7.69095,0.6357 -11.09836,2.802 -20.22896,10.9866 -26.20856,23.4932 -3.6354,7.6035 -6.2522,16.3876 -7.722,25.9207 -0.9703,6.2938 -0.9756,21.7519 -0.01,26.5121 2.8304,13.9394 9.5855,22.1757 19.6985,24.0178 2.3553,0.4291 8.05751,0.127 11.09059,-0.5875 z m -8.70378,-6.559 c -5.0028,-0.9368 -7.7701,-3.3805 -10.6886,-9.4383 -2.1691,-4.5024 -2.9157,-7.5097 -3.502,-14.105 -1.11,-12.4875 1.8277,-30.3545 6.7766,-41.214 3.0269,-6.6421 8.60962,-13.4791 13.29806,-16.2858 3.81285,-2.2825 6.74176,-3.0809 11.33786,-3.0904 3.77626,-0.01 4.15801,0.065 6.33455,1.2027 2.58486,1.3515 4.97583,3.1574 8.49889,6.4192 l 2.371,2.1951 -0.94805,1.3952 c -1.22551,1.8035 -1.2244,3.7152 0.004,7.3273 2.76863,8.1402 2.84211,16.3261 0.24463,27.2629 -4.02912,16.9647 -12.69449,31.1767 -21.88309,35.8903 -3.613,1.8533 -9.02507,2.9687 -11.84395,2.4408 z m -103.6313,6.573 c 1.882,-0.8403 43.0127,-1.4538 52.1173,-0.7773 4.0303,0.2995 6.9138,0.3506 7.6542,0.1358 4.5681,-1.3253 5.6114,-7.4865 1.4643,-8.6475 -0.573,-0.1604 -7.5432,-0.2916 -15.4892,-0.2916 -14.3263,0 -14.4473,-0.01 -14.4472,-0.7874 0,-1.3313 1.5016,-13.0349 2.5012,-19.4962 2.4496,-15.8331 5.3214,-29.7138 10.1848,-49.228 2.2815,-9.155 3.4087,-14.3573 3.2488,-14.9945 -0.6027,-2.4014 -2.6749,-2.8282 -5.1227,-1.0551 -2.121,1.5365 -4.5114,5.3165 -10.0309,15.8627 -3.726,7.1191 -5.5469,10.1144 -8.792,14.4625 -3.8007,5.0923 -10.0091,12.2127 -13.7911,15.817 -2.0714,1.974 -2.6914,3.1975 -2.6914,5.3111 0,1.3952 0.1873,1.8608 1.0084,2.5066 1.9708,1.5503 4.1815,0.95 7.2929,-1.9802 3.2035,-3.0169 10.1179,-11.0022 13.401,-15.4766 1.5981,-2.178 2.9468,-3.9141 2.9971,-3.8579 0.05,0.056 -0.8371,3.7663 -1.9719,8.2447 -1.135,4.4784 -2.4905,10.6782 -3.0124,13.7775 -0.8554,5.0802 -2.8338,20.5228 -3.4431,26.8753 -0.1312,1.3682 -0.324,2.9369 -0.4283,3.4861 l -0.1898,0.9985 -6.3918,0.4287 c -3.5155,0.2358 -9.4918,0.5175 -13.2806,0.626 -6.2501,0.1789 -6.9466,0.2671 -7.5129,0.9509 -1.418,1.7119 -1.1837,6.3686 0.3658,7.2728 0.9434,0.5504 2.9267,0.4758 4.3595,-0.1639 z"
       id="path4345"
       inkscape:connector-curvature="0" />
    <ellipse
       style="opacity:0.98000004;fill:#ffffff"
       id="path4358"
       cx="1426.5444"
       cy="-4006.5715"
       rx="70.710678"
       ry="108.89445" />
    <path
       style="opacity:0.98000004;fill:#000000"
       d="M 1372.8359 -311.66016 A 125.5 125.5 0 0 0 1247.3359 -186.16016 A 125.5 125.5 0 0 0 1372.8359 -60.660156 A 125.5 125.5 0 0 0 1498.3359 -186.16016 A 125.5 125.5 0 0 0 1372.8359 -311.66016 z M 1372.8359 -275.62109 A 108.89445 107.64278 0 0 1 1481.7305 -167.97852 A 108.89445 107.64278 0 0 1 1419.8398 -70.988281 A 94.752304 99.193825 0 0 0 1467.5879 -157.02539 A 94.752304 99.193825 0 0 0 1372.8359 -256.21875 A 94.752304 99.193825 0 0 0 1278.084 -157.02539 A 94.752304 99.193825 0 0 0 1325.9355 -70.978516 A 108.89445 107.64278 0 0 1 1263.9414 -167.97852 A 108.89445 107.64278 0 0 1 1372.8359 -275.62109 z M 1373.043 -218.13086 C 1381.6501 -218.00434 1389.0953 -209.86351 1386.791 -200.71289 C 1385.6118 -196.02959 1384.023 -193.8327 1380.1992 -191.5918 C 1375.4831 -188.8281 1369.6676 -188.94865 1365.0039 -191.90625 C 1355.4558 -197.96155 1356.5915 -212.12392 1367.0039 -216.85352 C 1369.0083 -217.76402 1371.0567 -218.16006 1373.043 -218.13086 z M 1358.4023 -183.50195 L 1364.2344 -183.50195 L 1368.3418 -178.11328 C 1370.6012 -175.14978 1372.6231 -172.72656 1372.8359 -172.72656 C 1373.0485 -172.72656 1375.0707 -175.14978 1377.3301 -178.11328 L 1381.4395 -183.50195 L 1387.2695 -183.50195 C 1392.8693 -183.50195 1393.205 -183.39855 1395.7305 -180.87305 L 1398.3594 -178.24219 L 1398.3594 -158.50195 L 1398.3594 -138.76172 L 1396.4043 -136.43945 C 1395.3294 -135.16195 1393.4151 -133.88903 1392.1504 -133.61133 L 1389.8516 -133.10547 L 1389.8516 -110.66016 L 1389.8516 -88.214844 L 1387.2227 -85.585938 C 1384.9819 -83.345135 1384.0571 -82.955078 1380.9746 -82.955078 C 1378.0077 -82.955078 1376.952 -83.362497 1375.0977 -85.216797 L 1372.8359 -87.476562 L 1370.5762 -85.216797 C 1368.722 -83.362497 1367.664 -82.955078 1364.6973 -82.955078 C 1361.6147 -82.955078 1360.6922 -83.345135 1358.4512 -85.585938 L 1355.8203 -88.214844 L 1355.8203 -110.66016 L 1355.8203 -133.10547 L 1353.5215 -133.61133 C 1352.2568 -133.88903 1350.3427 -135.16195 1349.2676 -136.43945 L 1347.3125 -138.76172 L 1347.3125 -158.50195 L 1347.3125 -178.24219 L 1349.9434 -180.87305 C 1352.4689 -183.39855 1352.8024 -183.50195 1358.4023 -183.50195 z "
       transform="translate(51.928817,-3497.6057)"
       id="circle4269" />
  </g>
</svg>
